<svg width="45" height="45" viewBox="0 0 45 45" fill="none" xmlns="http://www.w3.org/2000/svg">
<g clip-path="url(#clip0_1_32)">
<path d="M28.2187 9.375C30.0501 9.73231 31.7332 10.628 33.0526 11.9474C34.372 13.2668 35.2677 14.9499 35.625 16.7812M28.2187 1.875C32.0236 2.29769 35.5717 4.00158 38.2804 6.70689C40.9892 9.4122 42.6975 12.9581 43.125 16.7625M41.25 31.725V37.35C41.2521 37.8722 41.1452 38.3891 40.936 38.8675C40.7268 39.346 40.4199 39.7755 40.0351 40.1285C39.6504 40.4815 39.1961 40.7503 38.7014 40.9176C38.2067 41.0849 37.6826 41.147 37.1625 41.1C31.3928 40.4731 25.8506 38.5015 20.9812 35.3437C16.4509 32.465 12.61 28.6241 9.73125 24.0937C6.56246 19.2023 4.59045 13.6331 3.975 7.8375C3.92814 7.319 3.98976 6.79643 4.15593 6.30305C4.32211 5.80967 4.58919 5.35629 4.94018 4.97179C5.29117 4.58729 5.71838 4.28008 6.1946 4.06973C6.67083 3.85938 7.18564 3.75049 7.70625 3.75H13.3312C14.2412 3.74104 15.1234 4.06327 15.8133 4.65662C16.5032 5.24997 16.9539 6.07396 17.0812 6.975C17.3187 8.77512 17.759 10.5426 18.3937 12.2437C18.646 12.9149 18.7006 13.6442 18.5511 14.3454C18.4015 15.0466 18.0541 15.6902 17.55 16.2L15.1687 18.5812C17.8379 23.2754 21.7246 27.1621 26.4187 29.8312L28.8 27.45C29.3098 26.9459 29.9534 26.5985 30.6546 26.4489C31.3558 26.2994 32.0851 26.354 32.7562 26.6062C34.4574 27.241 36.2249 27.6813 38.025 27.9187C38.9358 28.0472 39.7676 28.506 40.3622 29.2078C40.9569 29.9096 41.2728 30.8055 41.25 31.725Z" stroke="#EBFFEE" stroke-width="4" stroke-linecap="round" stroke-linejoin="round"/>
</g>
<defs>
<clipPath id="clip0_1_32">
<rect width="45" height="45" fill="white"/>
</clipPath>
</defs>
</svg>
